Source : FooKaS(Thanks)
 
http://www.imdb.com/title/tt1763288/

Format                                   : AVI
Format/Info                              : Audio Video Interleave
File size                                : 701 MiB
Duration                                 : 1h 19mn
Overall bit rate                         : 1 229 Kbps
Writing library                          : VirtualDub build 32842/release

Video
ID                                       : 0
Format                                   : MPEG-4 Visual
Format profile                           : Advanced Simple@L5
Format settings, BVOP                    : 2
Format settings, QPel                    : No
Format settings, GMC                     : No warppoints
Format settings, Matrix                  : Default (H.263)
Muxing mode                              : Packed bitstream
Codec ID                                 : XVID
Codec ID/Hint                            : XviD
Duration                                 : 1h 19mn
Bit rate                                 : 1 089 Kbps
Width                                    : 640 pixels
Height                                   : 352 pixels
Display aspect ratio                     : 16:9
Frame rate                               : 29.970 fps
Color space                              : YUV
Chroma subsampling                       : 4:2:0
Bit depth                                : 8 bits
Scan type                                : Progressive
Compression mode                         : Lossy
Bits/(Pixel*Frame)                       : 0.161
Stream size                              : 622 MiB (89%)
Writing library                          : XviD 1.2.0.dev47 (UTC 2006-11-01)

Audio
ID                                       : 1
Format                                   : MPEG Audio
Format version                           : Version 1
Format profile                           : Layer 3
Codec ID                                 : 55
Codec ID/Hint                            : MP3
Duration                                 : 1h 19mn
Bit rate mode                            : Constant
Bit rate                                 : 128 Kbps
Channel(s)                               : 2 channels
Sampling rate                            : 44.1 KHz
Compression mode                         : Lossy
Stream size                              : 73.0 MiB (10%)
Alignment                                : Split accross interleaves
Interleave, duration                     : 33 ms (1.00 video frame)
Interleave, preload duration             : 500 ms
Writing library                          : LAME3.99r
Encoding settings                        : -m s -V 4 -q 3 -lowpass 17 -b 128

Plot
Four friends head to Vegas for a 21st birthday in hopes of finding adventure, debauchery and memories that will last them a lifetime. Cameron, the scandalous one of the group decides to record the whole trip, determined to not forget the fiasco . A girlfriend of theirs begs for a ride, convincing them she will disappear as soon as they arrive. When they get to Vegas the guys devise an amazing plan for the night. Things take a turn for the worst when they call strippers that have them travel to a remote location. Little do they know, the strippers work for an organ trafficker. The guys fight for their lives, but eventually get Stripped.
 
http://www.shotpix.com/images/57195443311194588860.png 
http://www.shotpix.com/images/73528612976327046004.png 
http://www.shotpix.com/images/44052983716660612680.png